<svg xmlns="http://www.w3.org/2000/svg" width="20" height="20" viewBox="0 0 20 20"><style type="text/css">.st0{fill:#FFFFFF;}</style><circle class="st0" cx="7.1" cy="7.7" r="1.5"/><circle class="st0" cx="12.9" cy="7.7" r="1.5"/><path class="st0" d="M10 0c-5.5 0-10 4.5-10 10s4.5 10 10 10 10-4.5 10-10-4.5-10-10-10zm0 18.4c-4.6 0-8.4-3.8-8.4-8.4 0-4.6 3.8-8.4 8.4-8.4s8.4 3.8 8.4 8.4c0 4.6-3.8 8.4-8.4 8.4zM14.7 11.3c-.4-.1-.8.2-.9.6 0 .2-.1.4-.2.6l-.3.6c-.1.2-.3.3-.5.5s-.4.3-.6.4l-.6.3c-.2.1-.5.2-.7.2-.5.1-1 .1-1.6 0-.2 0-.5-.1-.7-.2l-.6-.3-.6-.4-.5-.5-.3-.6c-.1-.2-.2-.4-.2-.6-.1-.4-.5-.7-.9-.6-.4.1-.7.5-.6.9l.3.9c.1.3.3.6.5.8.2.3.4.5.7.7.2.2.5.4.8.6.3.2.6.3.9.4l1 .3c.3.1.7.1 1.1.1.4 0 .7 0 1.1-.1l1-.3.9-.4c.3-.2.6-.4.8-.6l.7-.7c.2-.3.4-.5.5-.8l.3-.9c-.1-.4-.4-.8-.8-.9z"/></svg>
